<?xml version="1.0" encoding="UTF-8" standalone="no"?>
<svg
   xmlns:dc="http://purl.org/dc/elements/1.1/"
   xmlns:cc="http://creativecommons.org/ns#"
   xmlns:rdf="http://www.w3.org/1999/02/22-rdf-syntax-ns#"
   xmlns:svg="http://www.w3.org/2000/svg"
   xmlns="http://www.w3.org/2000/svg"
   xmlns:xlink="http://www.w3.org/1999/xlink"
   xmlns:sodipodi="http://sodipodi.sourceforge.net/DTD/sodipodi-0.dtd"
   xmlns:inkscape="http://www.inkscape.org/namespaces/inkscape"
   id="svg8"
   version="1.1"
   viewBox="0 0 210 297"
   height="297mm"
   width="210mm"
   inkscape:version="1.0 (4035a4f, 2020-05-01)"
   sodipodi:docname="disegno.svg">
  <defs
     id="defs2" />
  <sodipodi:namedview
     id="base"
     pagecolor="#ffffff"
     bordercolor="#666666"
     borderopacity="1.0"
     inkscape:pageopacity="0.0"
     inkscape:pageshadow="2"
     inkscape:zoom="1.5673868"
     inkscape:cx="394.82666"
     inkscape:cy="560.62757"
     inkscape:document-units="mm"
     inkscape:current-layer="layer1"
     inkscape:document-rotation="0"
     showgrid="false"
     inkscape:window-width="1377"
     inkscape:window-height="847"
     inkscape:window-x="63"
     inkscape:window-y="25"
     inkscape:window-maximized="0" />
  <metadata
     id="metadata5">
    <rdf:RDF>
      <cc:Work
         rdf:about="">
        <dc:format>image/svg+xml</dc:format>
        <dc:type
           rdf:resource="http://purl.org/dc/dcmitype/StillImage" />
        <dc:title />
      </cc:Work>
    </rdf:RDF>
  </metadata>
  <g
     inkscape:label="Livello 1"
     inkscape:groupmode="layer"
     id="layer1">
    <path
       inkscape:export-ydpi="9.3179274"
       inkscape:export-xdpi="9.3179274"
       d="m 115.55741,132.73601 c -0.003,0.0674 -0.0113,0.13366 -0.0113,0.2018 V 165.608 c 0,0.10746 0.01,0.21264 0.0189,0.31827 a -15.853422,16.707633 0 0 1 -14.01919,-16.59595 -15.853422,16.707633 0 0 1 14.01203,-16.59431 z"
       style="fill:#008000;stroke:#000000;stroke-width:0.3056;stroke-linecap:square;stroke-linejoin:round;stroke-dashoffset:28.8363;stroke-opacity:1"
       id="path1791" />
    <rect
       inkscape:export-ydpi="9.3179274"
       inkscape:export-xdpi="9.3179274"
       transform="matrix(-0.9181984,0.39612082,0.39612082,0.9181984,0,0)"
       ry="1.9006766"
       y="186.26755"
       x="-63.362091"
       height="11.047683"
       width="7.4839144"
       id="rect1787"
       style="fill:#008000;stroke:#000000;stroke-width:0.299;stroke-linecap:square;stroke-linejoin:round;stroke-miterlimit:4;stroke-dasharray:none;stroke-dashoffset:28.8363;stroke-opacity:1" />
    <image
       sodipodi:absref="/Users/davide/Desktop/burden/Unknown.png"
       xlink:href="Unknown.png"
       y="37.722023"
       x="71.059525"
       width="52.916668"
       height="66.675003"
       preserveAspectRatio="none"
       id="image843" />
    <path
       style="fill:#000000;stroke-width:0.264583"
       d="m 54.348995,170.86787 v -1.71979 h 3.307291 3.307292 v 1.71979 1.71979 h -3.307292 -3.307291 z m 14.022921,0 v -1.71979 h 3.43958 3.43958 v 1.71979 1.71979 h -3.43958 -3.43958 z m -17.727088,-8.99583 v -7.01146 h -3.439583 -3.439584 v -1.5875 -1.5875 h 3.439584 3.439583 v -3.57188 -3.57187 h -3.439583 -3.439584 v -1.71979 -1.7198 h 1.719792 1.719792 v -1.71979 -1.71979 h 1.719791 1.719792 v 1.71979 1.71979 h 14.022917 14.022921 v -1.71979 -1.71979 h 1.71979 1.71979 v 3.43958 3.43959 h 1.71979 1.71979 v 1.71979 1.71979 h -1.71979 -1.71979 v -1.71979 -1.71979 h -1.71979 -1.71979 v 8.73125 8.73125 h 1.71979 1.71979 v -1.71979 -1.71979 h 1.71979 1.71979 v 1.71979 1.71979 h -1.71979 -1.71979 v 1.71979 1.71979 h -1.71979 -1.71979 v 1.71979 1.7198 h -1.7198 -1.71979 v -3.43959 -3.43958 h -1.71979 -1.71979 v -1.71979 -1.71979 h 1.71979 1.71979 v -1.85209 -1.85208 h -3.43958 -3.43958 v -1.5875 -1.5875 h 3.43958 3.43958 v -3.57188 -3.57187 h -3.57187 -3.57188 v 3.43958 3.43959 h -1.719789 -1.719792 v -3.43959 -3.43958 h -5.291667 -5.291667 v 7.01146 7.01146 h 1.719792 1.719792 v 1.71979 1.71979 h -1.719792 -1.719792 v 3.43958 3.43959 H 52.36462 50.644828 Z m 10.583334,5.29166 v -1.71979 H 59.50837 57.788578 v -1.5875 -1.5875 h 6.879167 6.879171 v 1.5875 1.5875 h -1.7198 -1.71979 v 1.71979 1.7198 h -3.439581 -3.439583 z m 24.606254,-13.89062 v -5.29167 h 1.71979 1.71979 v 5.29167 5.29167 h -1.71979 -1.71979 z m -45.772922,-5.29167 v -3.43958 h 1.719792 1.719792 v 3.43958 3.43959 h -1.719792 -1.719792 z m 3.704167,-19.31458 v -8.73125 h 1.5875 1.5875 v 8.73125 8.73125 h -1.5875 -1.5875 z m 14.022917,7.01146 v -1.7198 h 6.879167 6.879171 v 1.7198 1.71979 h -6.879171 -6.879167 z m 24.606248,-7.01146 v -8.73125 h 1.5875 1.5875 v 8.73125 8.73125 h -1.5875 -1.5875 z m -31.749998,3.57187 v -1.71979 h 1.719792 1.719791 v 1.71979 1.71979 H 52.36462 50.644828 Z m 24.606248,0 v -1.71979 h 1.71979 1.7198 v 1.71979 1.71979 h -1.7198 -1.71979 z M 47.205245,118.21579 v -1.7198 h 1.719791 1.719792 v -1.71979 -1.71979 h 14.022917 14.022921 v 1.71979 1.71979 h 1.71979 1.71979 v 1.7198 1.71979 h -1.7077 -1.70771 l -0.0782,-1.78594 -0.0782,-1.78594 H 64.667745 50.77712 l -0.07824,1.78594 -0.07823,1.78594 h -1.707703 -1.707702 z"
       id="path849" />
    <rect
       inkscape:export-ydpi="9.3179274"
       inkscape:export-xdpi="9.3179274"
       transform="scale(-1,1)"
       ry="4.4349122"
       y="139.97691"
       x="-130.85222"
       height="25.777927"
       width="17.462467"
       id="rect1220"
       style="fill:#00ff00;stroke:#000000;stroke-width:0.264583;stroke-linecap:square;stroke-linejoin:round;stroke-dashoffset:28.8363;stroke-opacity:1" />
    <rect
       inkscape:export-ydpi="9.3179274"
       inkscape:export-xdpi="9.3179274"
       transform="scale(-1,1)"
       style="fill:#008000;stroke:#000000;stroke-width:0.299;stroke-linecap:square;stroke-linejoin:round;stroke-miterlimit:4;stroke-dasharray:none;stroke-dashoffset:28.8363;stroke-opacity:1"
       id="rect1222"
       width="5.6701183"
       height="11.047683"
       x="-132.3217"
       y="161.22757"
       ry="1.9006766" />
    <rect
       inkscape:export-ydpi="9.3179274"
       inkscape:export-xdpi="9.3179274"
       transform="scale(-1,1)"
       style="opacity:0.683761;fill:#008000;stroke-width:0.194588;stroke-linecap:square;stroke-linejoin:round;stroke-dashoffset:28.8363"
       id="rect1798"
       width="12.236168"
       height="19.89834"
       x="-128.23906"
       y="142.9167"
       ry="3.4233704" />
    <rect
       inkscape:export-ydpi="9.3179274"
       inkscape:export-xdpi="9.3179274"
       transform="matrix(-0.86460866,-0.50244589,-0.50244589,0.86460866,0,0)"
       style="fill:#008000;stroke:#000000;stroke-width:0.299;stroke-linecap:square;stroke-linejoin:round;stroke-miterlimit:4;stroke-dasharray:none;stroke-dashoffset:28.8363;stroke-opacity:1"
       id="rect1789"
       width="7.4839144"
       height="11.047683"
       x="-178.735"
       y="69.147209"
       ry="1.9006766" />
    <g
       inkscape:export-ydpi="9.3179274"
       inkscape:export-xdpi="9.3179274"
       transform="matrix(-1,0,0,1,206.28699,46.402678)"
       id="g1216">
      <ellipse
         ry="16.455919"
         rx="16.368061"
         cy="83.986153"
         cx="80.659966"
         id="path12"
         style="fill:#000000;stroke:none;stroke-width:0.0957363;stroke-linecap:square;stroke-linejoin:round;stroke-dashoffset:28.8363" />
      <circle
         r="15.563783"
         style="fill:#00ff00;stroke:none;stroke-width:0.0907886;stroke-linecap:square;stroke-linejoin:round;stroke-dashoffset:28.8363"
         id="circle16"
         cx="80.659966"
         cy="83.986153" />
      <circle
         r="4.2013721"
         style="opacity:0.452992;fill:#000000;stroke:none;stroke-width:0.0245079;stroke-linecap:square;stroke-linejoin:round;stroke-dashoffset:28.8363"
         id="path12-8"
         cx="71.952858"
         cy="80.60508" />
      <circle
         r="3.572999"
         cy="80.302971"
         cx="71.693916"
         id="circle16-0"
         style="fill:#ffffff;stroke:none;stroke-width:0.0208425;stroke-linecap:square;stroke-linejoin:round;stroke-dashoffset:28.8363" />
      <circle
         r="1.485978"
         style="fill:#000080;stroke:none;stroke-width:0.0086682;stroke-linecap:square;stroke-linejoin:round;stroke-dashoffset:28.8363"
         id="circle36"
         cx="69.946068"
         cy="80.281395" />
      <ellipse
         transform="rotate(33.807224)"
         ry="0.40848342"
         rx="0.24956262"
         cy="27.913544"
         cx="103.85339"
         id="circle861"
         style="fill:#ffffff;stroke:none;stroke-width:0.00186249;stroke-linecap:square;stroke-linejoin:round;stroke-dashoffset:28.8363" />
      <path
         d="m 85.454809,68.840805 a 16.889606,18.356229 0 0 0 -16.614868,3.66251 19.719381,21.43173 0 0 1 15.813219,-1.45815 19.719381,21.43173 0 0 1 12.167309,13.00188 16.889606,18.356229 0 0 0 -11.304649,-15.18356 16.889606,18.356229 0 0 0 -0.061,-0.0227 z"
         style="opacity:0.626781;fill:#000000;stroke:none;stroke-width:0.102711;stroke-linecap:square;stroke-linejoin:round;stroke-dashoffset:28.8363"
         id="circle871" />
      <path
         id="path876"
         style="opacity:0.626781;fill:#000000;stroke:none;stroke-width:0.0907886;stroke-linecap:square;stroke-linejoin:round;stroke-dashoffset:28.8363"
         d="m 78.520349,99.686746 a 15.563783,15.563783 0 0 0 14.376899,-6.112511 18.171422,18.171422 0 0 1 -14.027979,4.133322 18.171422,18.171422 0 0 1 -13.195075,-8.551652 15.563783,15.563783 0 0 0 12.787216,10.523282 15.563783,15.563783 0 0 0 0.0589,0.008 z" />
      <circle
         r="4.2013721"
         cy="80.514076"
         cx="81.644371"
         id="circle878"
         style="opacity:0.452992;fill:#000000;stroke:none;stroke-width:0.0245079;stroke-linecap:square;stroke-linejoin:round;stroke-dashoffset:28.8363" />
      <circle
         r="3.572999"
         style="fill:#ffffff;stroke:none;stroke-width:0.0208425;stroke-linecap:square;stroke-linejoin:round;stroke-dashoffset:28.8363"
         id="circle880"
         cx="81.385414"
         cy="80.211983" />
      <circle
         r="1.485978"
         cy="80.190392"
         cx="79.637566"
         id="circle882"
         style="fill:#000080;stroke:none;stroke-width:0.0086682;stroke-linecap:square;stroke-linejoin:round;stroke-dashoffset:28.8363" />
      <ellipse
         style="fill:#ffffff;stroke:none;stroke-width:0.00186249;stroke-linecap:square;stroke-linejoin:round;stroke-dashoffset:28.8363"
         id="ellipse884"
         cx="111.85558"
         cy="22.445572"
         rx="0.24956262"
         ry="0.40848342"
         transform="rotate(33.807224)" />
      <path
         d="m 70.430169,90.611825 a 6.9415229,8.8953697 64.164254 0 0 0.0464,0.0978 6.9415229,8.8953697 64.164254 0 0 11.03132,2.37116 6.9415229,8.8953697 64.164254 0 0 0.33269,-0.16853 8.7682388,11.610797 64.164254 0 1 -11.41041,-2.30051 z"
         style="opacity:1;fill:#000000;stroke:none;stroke-width:0.201013;stroke-linecap:square;stroke-linejoin:round;stroke-dashoffset:28.8363"
         id="path886" />
      <path
         inkscape:export-ydpi="19.910927"
         inkscape:export-xdpi="19.910927"
         inkscape:export-filename="/Users/davide/Desktop/scario.png"
         d="m 73.61061,84.939825 a 3.1353263,3.347153 0 0 0 0.27691,0.83901 3.1353263,3.347153 0 0 0 4.217939,1.45953 3.1353263,3.347153 0 0 0 1.209931,-1.16796 3.2797287,3.6610121 48.487054 0 1 -0.885441,0.65257 3.2797287,3.6610121 48.487054 0 1 -4.620589,-1.24011 3.2797287,3.6610121 48.487054 0 1 -0.19875,-0.54304 z"
         style="opacity:1;fill:#000000;stroke:none;stroke-width:0.0577379;stroke-linecap:square;stroke-linejoin:round;stroke-dashoffset:28.8363"
         id="path1085" />
    </g>
    <rect
       inkscape:export-ydpi="9.3179274"
       inkscape:export-xdpi="9.3179274"
       transform="scale(-1,1)"
       ry="1.9006766"
       y="161.22757"
       x="-117.50508"
       height="11.047683"
       width="5.6701183"
       id="rect1802"
       style="fill:#008000;stroke:#000000;stroke-width:0.299;stroke-linecap:square;stroke-linejoin:round;stroke-miterlimit:4;stroke-dasharray:none;stroke-dashoffset:28.8363;stroke-opacity:1" />
  </g>
</svg>
